<svg width="669" height="141" viewBox="0 0 669 141" fill="none" xmlns="http://www.w3.org/2000/svg">
<path d="M543 62.5V140.499H576V96L543 62.5Z" fill="#4E9AFF"/>
<path d="M543 4V46.5L635 140.499H668.5V4H635V91.5L548.5 4H543Z" fill="#2C2C2C"/>
<path d="M396 140.5V67L430.5 102V140.5H396Z" fill="#4E9AFF"/>
<path fill-rule="evenodd" clip-rule="evenodd" d="M539 140.5H485.5L396.5 52V0H494.5C517 -7.15255e-06 530.5 18 530.5 41.0001C530.5 64.0001 503.5 87 494.5 87H485.5L539 140.5ZM448.5 52L433.5 36.5001H494.5C494.94 46.5956 492.903 50.1318 484.5 52H448.5Z" fill="#2C2C2C"/>
<path d="M223 140.5L262.5 140L301 76L281 43.5L223 140.5Z" fill="#4E9AFF"/>
<path d="M353.5 140.5L288.5 34L307.5 0L392.5 140.5H353.5Z" fill="#2C2C2C"/>
<path d="M102 140.5V61.5L136 96V106H219V140.5H102Z" fill="#4E9AFF"/>
<path d="M219.5 88H144.5L102.5 45.5V0H219.5V34.5H140L158.5 53H219.5V88Z" fill="#2C2C2C"/>
<path d="M0 0V140.5H74.5L41 106H35.5V0H0Z" fill="#2C2C2C"/>
<path d="M57 106L91.5 140.5H98.5V106H57Z" fill="#4E9AFF"/>
</svg>
