<svg width="500" height="500" viewBox="0 0 500 500" fill="none" xmlns="http://www.w3.org/2000/svg">
<rect x="10" y="10" width="480" height="480" rx="90" stroke="#6D6D6D" stroke-width="20"/>
<path d="M136.043 340L86.3267 158.182H108.699L146.696 306.264H148.472L187.179 158.182H212.037L250.744 306.264H252.52L290.517 158.182H312.889L263.173 340H240.446L200.318 195.114H198.898L158.77 340H136.043ZM401.046 158.182V340H379.029V181.264H377.964L333.575 210.739V188.366L379.029 158.182H401.046Z" fill="#6D6D6D"/>
<path d="M136.043 340L126.397 342.638L128.41 350H136.043V340ZM86.3267 158.182V148.182H73.2252L76.6808 160.819L86.3267 158.182ZM108.699 158.182L118.385 155.696L116.457 148.182H108.699V158.182ZM146.696 306.264L137.01 308.75L138.938 316.264H146.696V306.264ZM148.472 306.264V316.264H156.194L158.147 308.793L148.472 306.264ZM187.179 158.182V148.182H179.457L177.504 155.653L187.179 158.182ZM212.037 158.182L221.712 155.653L219.759 148.182H212.037V158.182ZM250.744 306.264L241.069 308.793L243.022 316.264H250.744V306.264ZM252.52 306.264V316.264H260.278L262.206 308.75L252.52 306.264ZM290.517 158.182V148.182H282.759L280.831 155.696L290.517 158.182ZM312.889 158.182L322.535 160.819L325.991 148.182H312.889V158.182ZM263.173 340V350H270.806L272.819 342.638L263.173 340ZM240.446 340L230.809 342.669L232.839 350H240.446V340ZM200.318 195.114L209.955 192.444L207.925 185.114H200.318V195.114ZM198.898 195.114V185.114H191.291L189.261 192.444L198.898 195.114ZM158.77 340V350H166.377L168.407 342.669L158.77 340ZM145.689 337.362L95.9726 155.544L76.6808 160.819L126.397 342.638L145.689 337.362ZM86.3267 168.182H108.699V148.182H86.3267V168.182ZM99.0127 160.667L137.01 308.75L156.382 303.779L118.385 155.696L99.0127 160.667ZM146.696 316.264H148.472V296.264H146.696V316.264ZM158.147 308.793L196.854 160.711L177.504 155.653L138.797 303.735L158.147 308.793ZM187.179 168.182H212.037V148.182H187.179V168.182ZM202.362 160.711L241.069 308.793L260.419 303.735L221.712 155.653L202.362 160.711ZM250.744 316.264H252.52V296.264H250.744V316.264ZM262.206 308.75L300.203 160.667L280.831 155.696L242.834 303.779L262.206 308.75ZM290.517 168.182H312.889V148.182H290.517V168.182ZM303.243 155.544L253.527 337.362L272.819 342.638L322.535 160.819L303.243 155.544ZM263.173 330H240.446V350H263.173V330ZM250.083 337.331L209.955 192.444L190.681 197.783L230.809 342.669L250.083 337.331ZM200.318 185.114H198.898V205.114H200.318V185.114ZM189.261 192.444L149.133 337.331L168.407 342.669L208.535 197.783L189.261 192.444ZM158.77 330H136.043V350H158.77V330ZM401.046 158.182H411.046V148.182H401.046V158.182ZM401.046 340V350H411.046V340H401.046ZM379.029 340H369.029V350H379.029V340ZM379.029 181.264H389.029V171.264H379.029V181.264ZM377.964 181.264V171.264H374.946L372.432 172.933L377.964 181.264ZM333.575 210.739H323.575V229.382L339.106 219.069L333.575 210.739ZM333.575 188.366L328.043 180.036L323.575 183.003V188.366H333.575ZM379.029 158.182V148.182H376.011L373.497 149.851L379.029 158.182ZM391.046 158.182V340H411.046V158.182H391.046ZM401.046 330H379.029V350H401.046V330ZM389.029 340V181.264H369.029V340H389.029ZM379.029 171.264H377.964V191.264H379.029V171.264ZM372.432 172.933L328.043 202.408L339.106 219.069L383.495 189.595L372.432 172.933ZM343.575 210.739V188.366H323.575V210.739H343.575ZM339.107 196.697L384.561 166.512L373.497 149.851L328.043 180.036L339.107 196.697ZM379.029 168.182H401.046V148.182H379.029V168.182Z" fill="#6D6D6D"/>
</svg>
