<svg width="500" height="500" viewBox="0 0 500 500" fill="none" xmlns="http://www.w3.org/2000/svg">
<rect x="10" y="10" width="480" height="480" rx="90" stroke="#6D6D6D" stroke-width="20"/>
<path d="M111.043 340L61.3267 158.182H83.6989L121.696 306.264H123.472L162.179 158.182H187.037L225.744 306.264H227.52L265.517 158.182H287.889L238.173 340H215.446L175.318 195.114H173.898L133.77 340H111.043ZM312.126 340V324.02L372.14 258.324C379.183 250.63 384.983 243.942 389.54 238.26C394.098 232.519 397.471 227.133 399.661 222.102C401.91 217.012 403.035 211.686 403.035 206.122C403.035 199.73 401.496 194.196 398.418 189.521C395.4 184.845 391.257 181.235 385.989 178.69C380.722 176.145 374.803 174.872 368.234 174.872C361.25 174.872 355.154 176.322 349.945 179.222C344.796 182.063 340.801 186.058 337.96 191.207C335.179 196.357 333.788 202.393 333.788 209.318H312.836C312.836 198.665 315.292 189.313 320.205 181.264C325.117 173.215 331.805 166.941 340.268 162.443C348.791 157.945 358.35 155.696 368.944 155.696C379.597 155.696 389.037 157.945 397.264 162.443C405.491 166.941 411.942 173.008 416.618 180.643C421.294 188.278 423.631 196.771 423.631 206.122C423.631 212.81 422.418 219.35 419.991 225.742C417.624 232.075 413.481 239.148 407.562 246.96C401.703 254.714 393.565 264.183 383.148 275.369L342.31 319.048V320.469H426.827V340H312.126Z" fill="#6D6D6D"/>
<path d="M111.043 340L101.397 342.638L103.41 350H111.043V340ZM61.3267 158.182V148.182H48.2252L51.6808 160.819L61.3267 158.182ZM83.6989 158.182L93.3851 155.696L91.4569 148.182H83.6989V158.182ZM121.696 306.264L112.01 308.75L113.938 316.264H121.696V306.264ZM123.472 306.264V316.264H131.194L133.147 308.793L123.472 306.264ZM162.179 158.182V148.182H154.457L152.504 155.653L162.179 158.182ZM187.037 158.182L196.712 155.653L194.759 148.182H187.037V158.182ZM225.744 306.264L216.069 308.793L218.022 316.264H225.744V306.264ZM227.52 306.264V316.264H235.278L237.206 308.75L227.52 306.264ZM265.517 158.182V148.182H257.759L255.831 155.696L265.517 158.182ZM287.889 158.182L297.535 160.819L300.991 148.182H287.889V158.182ZM238.173 340V350H245.806L247.819 342.638L238.173 340ZM215.446 340L205.809 342.669L207.839 350H215.446V340ZM175.318 195.114L184.955 192.444L182.925 185.114H175.318V195.114ZM173.898 195.114V185.114H166.291L164.261 192.444L173.898 195.114ZM133.77 340V350H141.377L143.407 342.669L133.77 340ZM120.689 337.362L70.9726 155.544L51.6808 160.819L101.397 342.638L120.689 337.362ZM61.3267 168.182H83.6989V148.182H61.3267V168.182ZM74.0127 160.667L112.01 308.75L131.382 303.779L93.3851 155.696L74.0127 160.667ZM121.696 316.264H123.472V296.264H121.696V316.264ZM133.147 308.793L171.854 160.711L152.504 155.653L113.797 303.735L133.147 308.793ZM162.179 168.182H187.037V148.182H162.179V168.182ZM177.362 160.711L216.069 308.793L235.419 303.735L196.712 155.653L177.362 160.711ZM225.744 316.264H227.52V296.264H225.744V316.264ZM237.206 308.75L275.203 160.667L255.831 155.696L217.834 303.779L237.206 308.75ZM265.517 168.182H287.889V148.182H265.517V168.182ZM278.243 155.544L228.527 337.362L247.819 342.638L297.535 160.819L278.243 155.544ZM238.173 330H215.446V350H238.173V330ZM225.083 337.331L184.955 192.444L165.681 197.783L205.809 342.669L225.083 337.331ZM175.318 185.114H173.898V205.114H175.318V185.114ZM164.261 192.444L124.133 337.331L143.407 342.669L183.535 197.783L164.261 192.444ZM133.77 330H111.043V350H133.77V330ZM312.126 340H302.126V350H312.126V340ZM312.126 324.02L304.743 317.275L302.126 320.14V324.02H312.126ZM372.14 258.324L364.764 251.572L364.757 251.579L372.14 258.324ZM389.54 238.26L397.341 244.517L397.357 244.497L397.373 244.477L389.54 238.26ZM399.661 222.102L390.514 218.061L390.503 218.086L390.492 218.111L399.661 222.102ZM398.418 189.521L390.017 194.944L390.041 194.982L390.065 195.019L398.418 189.521ZM385.989 178.69L390.34 169.685L390.34 169.685L385.989 178.69ZM349.945 179.222L354.776 187.978L354.793 187.969L354.81 187.959L349.945 179.222ZM337.96 191.207L329.204 186.377L329.183 186.415L329.162 186.454L337.96 191.207ZM333.788 209.318V219.318H343.788V209.318H333.788ZM312.836 209.318H302.836V219.318H312.836V209.318ZM320.205 181.264L328.74 186.474L328.74 186.474L320.205 181.264ZM340.268 162.443L335.601 153.599L335.588 153.606L335.575 153.613L340.268 162.443ZM397.264 162.443L402.062 153.669L402.062 153.669L397.264 162.443ZM416.618 180.643L408.09 185.865L416.618 180.643ZM419.991 225.742L410.642 222.193L410.633 222.217L410.625 222.241L419.991 225.742ZM407.562 246.96L399.592 240.922L399.584 240.931L407.562 246.96ZM383.148 275.369L390.453 282.199L390.46 282.192L390.467 282.184L383.148 275.369ZM342.31 319.048L335.006 312.219L332.31 315.102V319.048H342.31ZM342.31 320.469H332.31V330.469H342.31V320.469ZM426.827 320.469H436.827V310.469H426.827V320.469ZM426.827 340V350H436.827V340H426.827ZM322.126 340V324.02H302.126V340H322.126ZM319.509 330.764L379.523 265.068L364.757 251.579L304.743 317.275L319.509 330.764ZM379.516 265.076C386.649 257.284 392.604 250.423 397.341 244.517L381.74 232.003C377.363 237.46 371.717 243.976 364.764 251.572L379.516 265.076ZM397.373 244.477C402.302 238.268 406.2 232.137 408.83 226.093L390.492 218.111C388.743 222.129 385.894 226.77 381.708 232.043L397.373 244.477ZM408.808 226.144C411.62 219.781 413.035 213.078 413.035 206.122H393.035C393.035 210.293 392.201 214.244 390.514 218.061L408.808 226.144ZM413.035 206.122C413.035 198.061 411.07 190.554 406.771 184.022L390.065 195.019C391.922 197.839 393.035 201.399 393.035 206.122H413.035ZM406.82 184.097C402.753 177.798 397.172 172.987 390.34 169.685L381.639 187.694C385.341 189.483 388.046 191.892 390.017 194.944L406.82 184.097ZM390.34 169.685C383.557 166.408 376.123 164.872 368.234 164.872V184.872C373.483 184.872 377.887 185.881 381.639 187.694L390.34 169.685ZM368.234 164.872C359.841 164.872 352.013 166.625 345.08 170.485L354.81 187.959C358.294 186.019 362.659 184.872 368.234 184.872V164.872ZM345.115 170.467C338.313 174.219 332.957 179.575 329.204 186.377L346.716 196.038C348.645 192.542 351.279 189.907 354.776 187.978L345.115 170.467ZM329.162 186.454C325.459 193.309 323.788 201.038 323.788 209.318H343.788C343.788 203.749 344.898 199.404 346.758 195.96L329.162 186.454ZM333.788 199.318H312.836V219.318H333.788V199.318ZM322.836 209.318C322.836 200.258 324.905 192.758 328.74 186.474L311.669 176.055C305.679 185.869 302.836 197.071 302.836 209.318H322.836ZM328.74 186.474C332.703 179.98 338.053 174.945 344.962 171.274L335.575 153.613C325.557 158.937 317.53 166.45 311.669 176.055L328.74 186.474ZM344.936 171.287C351.881 167.622 359.812 165.696 368.944 165.696V145.696C356.888 145.696 345.701 148.269 335.601 153.599L344.936 171.287ZM368.944 165.696C378.152 165.696 385.902 167.628 392.467 171.217L402.062 153.669C392.173 148.262 381.043 145.696 368.944 145.696V165.696ZM392.467 171.217C399.237 174.919 404.37 179.791 408.09 185.865L425.146 175.42C419.514 166.224 411.745 158.964 402.062 153.669L392.467 171.217ZM408.09 185.865C411.759 191.857 413.631 198.528 413.631 206.122H433.631C433.631 195.014 430.828 184.699 425.146 175.42L408.09 185.865ZM413.631 206.122C413.631 211.57 412.648 216.909 410.642 222.193L429.34 229.291C432.188 221.791 433.631 214.05 433.631 206.122H413.631ZM410.625 222.241C408.712 227.357 405.163 233.568 399.592 240.922L415.533 252.999C421.799 244.728 426.536 236.793 429.358 229.244L410.625 222.241ZM399.584 240.931C394.013 248.303 386.129 257.495 375.83 268.554L390.467 282.184C401.001 270.872 409.393 261.124 415.541 252.989L399.584 240.931ZM375.844 268.54L335.006 312.219L349.615 325.878L390.453 282.199L375.844 268.54ZM332.31 319.048V320.469H352.31V319.048H332.31ZM342.31 330.469H426.827V310.469H342.31V330.469ZM416.827 320.469V340H436.827V320.469H416.827ZM426.827 330H312.126V350H426.827V330Z" fill="#6D6D6D"/>
</svg>
