<svg width="500" height="500" viewBox="0 0 500 500" fill="none" xmlns="http://www.w3.org/2000/svg">
<rect x="10" y="10" width="480" height="480" rx="90" stroke="#6D6D6D" stroke-width="20"/>
<path d="M107.043 340L57.3267 158.182H79.6989L117.696 306.264H119.472L158.179 158.182H183.037L221.744 306.264H223.52L261.517 158.182H283.889L234.173 340H211.446L171.318 195.114H169.898L129.77 340H107.043ZM369.56 342.486C357.842 342.486 347.395 340.473 338.222 336.449C329.107 332.424 321.857 326.831 316.471 319.67C311.144 312.449 308.244 304.074 307.771 294.545H330.143C330.616 300.405 332.629 305.465 336.18 309.727C339.731 313.929 344.377 317.184 350.118 319.492C355.859 321.8 362.221 322.955 369.205 322.955C377.018 322.955 383.942 321.593 389.979 318.871C396.016 316.148 400.751 312.36 404.184 307.507C407.617 302.654 409.333 297.031 409.333 290.639C409.333 283.951 407.676 278.062 404.362 272.972C401.047 267.823 396.194 263.799 389.802 260.898C383.41 257.998 375.597 256.548 366.364 256.548H351.805V237.017H366.364C373.585 237.017 379.918 235.715 385.363 233.111C390.867 230.507 395.158 226.837 398.236 222.102C401.373 217.367 402.941 211.804 402.941 205.412C402.941 199.257 401.58 193.9 398.857 189.343C396.135 184.786 392.288 181.235 387.316 178.69C382.404 176.145 376.603 174.872 369.915 174.872C363.642 174.872 357.723 176.026 352.16 178.335C346.656 180.584 342.157 183.868 338.665 188.189C335.174 192.45 333.28 197.599 332.984 203.636H311.677C312.032 194.107 314.902 185.762 320.288 178.601C325.674 171.38 332.717 165.758 341.418 161.733C350.177 157.708 359.795 155.696 370.271 155.696C381.516 155.696 391.163 157.975 399.212 162.532C407.262 167.03 413.446 172.978 417.767 180.376C422.088 187.775 424.248 195.765 424.248 204.347C424.248 214.586 421.555 223.316 416.169 230.536C410.842 237.757 403.592 242.758 394.418 245.54V246.96C405.9 248.854 414.867 253.737 421.318 261.609C427.769 269.421 430.995 279.098 430.995 290.639C430.995 300.523 428.302 309.401 422.916 317.273C417.589 325.085 410.31 331.241 401.077 335.739C391.844 340.237 381.338 342.486 369.56 342.486Z" fill="#6D6D6D"/>
<path d="M107.043 340L97.3967 342.638L99.4099 350H107.043V340ZM57.3267 158.182V148.182H44.2252L47.6808 160.819L57.3267 158.182ZM79.6989 158.182L89.3851 155.696L87.4569 148.182H79.6989V158.182ZM117.696 306.264L108.01 308.75L109.938 316.264H117.696V306.264ZM119.472 306.264V316.264H127.194L129.147 308.793L119.472 306.264ZM158.179 158.182V148.182H150.457L148.504 155.653L158.179 158.182ZM183.037 158.182L192.712 155.653L190.759 148.182H183.037V158.182ZM221.744 306.264L212.069 308.793L214.022 316.264H221.744V306.264ZM223.52 306.264V316.264H231.278L233.206 308.75L223.52 306.264ZM261.517 158.182V148.182H253.759L251.831 155.696L261.517 158.182ZM283.889 158.182L293.535 160.819L296.991 148.182H283.889V158.182ZM234.173 340V350H241.806L243.819 342.638L234.173 340ZM211.446 340L201.809 342.669L203.839 350H211.446V340ZM171.318 195.114L180.955 192.444L178.925 185.114H171.318V195.114ZM169.898 195.114V185.114H162.291L160.261 192.444L169.898 195.114ZM129.77 340V350H137.377L139.407 342.669L129.77 340ZM116.689 337.362L66.9726 155.544L47.6808 160.819L97.3967 342.638L116.689 337.362ZM57.3267 168.182H79.6989V148.182H57.3267V168.182ZM70.0127 160.667L108.01 308.75L127.382 303.779L89.3851 155.696L70.0127 160.667ZM117.696 316.264H119.472V296.264H117.696V316.264ZM129.147 308.793L167.854 160.711L148.504 155.653L109.797 303.735L129.147 308.793ZM158.179 168.182H183.037V148.182H158.179V168.182ZM173.362 160.711L212.069 308.793L231.419 303.735L192.712 155.653L173.362 160.711ZM221.744 316.264H223.52V296.264H221.744V316.264ZM233.206 308.75L271.203 160.667L251.831 155.696L213.834 303.779L233.206 308.75ZM261.517 168.182H283.889V148.182H261.517V168.182ZM274.243 155.544L224.527 337.362L243.819 342.638L293.535 160.819L274.243 155.544ZM234.173 330H211.446V350H234.173V330ZM221.083 337.331L180.955 192.444L161.681 197.783L201.809 342.669L221.083 337.331ZM171.318 185.114H169.898V205.114H171.318V185.114ZM160.261 192.444L120.133 337.331L139.407 342.669L179.535 197.783L160.261 192.444ZM129.77 330H107.043V350H129.77V330ZM338.222 336.449L334.182 345.597L334.193 345.602L334.204 345.606L338.222 336.449ZM316.471 319.67L308.424 325.606L308.451 325.643L308.479 325.68L316.471 319.67ZM307.771 294.545V284.545H297.261L297.783 295.042L307.771 294.545ZM330.143 294.545L340.11 293.74L339.367 284.545H330.143V294.545ZM336.18 309.727L328.497 316.128L328.52 316.155L328.542 316.181L336.18 309.727ZM350.118 319.492L346.388 328.77L346.388 328.77L350.118 319.492ZM404.184 307.507L396.02 301.732L396.02 301.732L404.184 307.507ZM404.362 272.972L395.953 278.385L395.967 278.407L395.982 278.429L404.362 272.972ZM389.802 260.898L385.67 270.005L385.67 270.005L389.802 260.898ZM351.805 256.548H341.805V266.548H351.805V256.548ZM351.805 237.017V227.017H341.805V237.017H351.805ZM385.363 233.111L381.086 224.071L381.067 224.08L381.048 224.089L385.363 233.111ZM398.236 222.102L389.899 216.579L389.875 216.616L389.851 216.652L398.236 222.102ZM398.857 189.343L407.442 184.214L407.442 184.214L398.857 189.343ZM387.316 178.69L382.716 187.569L382.738 187.58L382.759 187.591L387.316 178.69ZM352.16 178.335L355.942 187.592L355.967 187.581L355.992 187.571L352.16 178.335ZM338.665 188.189L346.4 194.527L346.422 194.501L346.443 194.475L338.665 188.189ZM332.984 203.636V213.636H342.505L342.972 204.126L332.984 203.636ZM311.677 203.636L301.684 203.264L301.297 213.636H311.677V203.636ZM320.288 178.601L328.28 184.611L328.292 184.596L328.304 184.58L320.288 178.601ZM341.418 161.733L337.243 152.646L337.231 152.652L337.219 152.657L341.418 161.733ZM399.212 162.532L394.285 171.234L394.31 171.248L394.334 171.261L399.212 162.532ZM417.767 180.376L409.132 185.419L409.132 185.419L417.767 180.376ZM416.169 230.536L408.153 224.557L408.137 224.578L408.122 224.6L416.169 230.536ZM394.418 245.54L391.517 235.97L384.418 238.122V245.54H394.418ZM394.418 246.96H384.418V255.446L392.791 256.827L394.418 246.96ZM421.318 261.609L413.584 267.947L413.596 267.962L413.607 267.976L421.318 261.609ZM422.916 317.273L414.663 311.626L414.659 311.633L414.654 311.639L422.916 317.273ZM401.077 335.739L405.456 344.729L405.456 344.729L401.077 335.739ZM369.56 332.486C358.992 332.486 349.95 330.674 342.239 327.291L334.204 345.606C344.841 350.273 356.691 352.486 369.56 352.486V332.486ZM342.261 327.301C334.532 323.888 328.71 319.306 324.463 313.659L308.479 325.68C315.004 334.356 323.682 340.96 334.182 345.597L342.261 327.301ZM324.518 313.733C320.435 308.198 318.141 301.744 317.758 294.049L297.783 295.042C298.348 306.405 301.854 316.7 308.424 325.606L324.518 313.733ZM307.771 304.545H330.143V284.545H307.771V304.545ZM320.175 295.351C320.804 303.137 323.544 310.185 328.497 316.128L343.862 303.325C341.713 300.746 340.428 297.673 340.11 293.74L320.175 295.351ZM328.542 316.181C333.271 321.778 339.324 325.931 346.388 328.77L353.848 310.214C349.429 308.437 346.191 306.08 343.818 303.272L328.542 316.181ZM346.388 328.77C353.457 331.613 361.107 332.955 369.205 332.955V312.955C363.336 312.955 358.26 311.988 353.848 310.214L346.388 328.77ZM369.205 332.955C378.184 332.955 386.55 331.387 394.09 327.987L385.868 309.755C381.335 311.799 375.852 312.955 369.205 312.955V332.955ZM394.09 327.987C401.562 324.617 407.772 319.751 412.348 313.282L396.02 301.732C393.73 304.97 390.471 307.679 385.868 309.755L394.09 327.987ZM412.348 313.282C417.067 306.611 419.333 298.935 419.333 290.639H399.333C399.333 295.127 398.167 298.697 396.02 301.732L412.348 313.282ZM419.333 290.639C419.333 282.217 417.219 274.392 412.741 267.516L395.982 278.429C398.133 281.733 399.333 285.685 399.333 290.639H419.333ZM412.77 267.56C408.269 260.567 401.814 255.367 393.934 251.792L385.67 270.005C390.574 272.23 393.825 275.079 395.953 278.385L412.77 267.56ZM393.934 251.792C385.903 248.148 376.593 246.548 366.364 246.548V266.548C374.601 266.548 380.917 267.848 385.67 270.005L393.934 251.792ZM366.364 246.548H351.805V266.548H366.364V246.548ZM361.805 256.548V237.017H341.805V256.548H361.805ZM351.805 247.017H366.364V227.017H351.805V247.017ZM366.364 247.017C374.789 247.017 382.646 245.495 389.677 242.132L381.048 224.089C377.189 225.935 372.381 227.017 366.364 227.017V247.017ZM389.64 242.15C396.683 238.818 402.453 233.963 406.62 227.552L389.851 216.652C387.863 219.711 385.051 222.195 381.086 224.071L389.64 242.15ZM406.572 227.625C410.927 221.053 412.941 213.514 412.941 205.412H392.941C392.941 210.094 391.819 213.682 389.899 216.579L406.572 227.625ZM412.941 205.412C412.941 197.743 411.23 190.555 407.442 184.214L390.272 194.472C391.93 197.245 392.941 200.77 392.941 205.412H412.941ZM407.442 184.214C403.706 177.961 398.423 173.141 391.873 169.788L382.759 187.591C386.152 189.328 388.563 191.611 390.273 194.472L407.442 184.214ZM391.916 169.81C385.315 166.391 377.873 164.872 369.915 164.872V184.872C375.334 184.872 379.493 185.899 382.716 187.569L391.916 169.81ZM369.915 164.872C362.382 164.872 355.156 166.265 348.328 169.098L355.992 187.571C360.29 185.788 364.901 184.872 369.915 184.872V164.872ZM348.377 169.077C341.425 171.918 335.514 176.179 330.888 181.903L346.443 194.475C348.801 191.557 351.886 189.249 355.942 187.592L348.377 169.077ZM330.931 181.851C325.948 187.932 323.386 195.188 322.996 203.147L342.972 204.126C343.173 200.01 344.4 196.969 346.4 194.527L330.931 181.851ZM332.984 193.636H311.677V213.636H332.984V193.636ZM321.67 204.009C321.954 196.381 324.202 190.035 328.28 184.611L312.296 172.59C305.603 181.49 302.11 191.834 301.684 203.264L321.67 204.009ZM328.304 184.58C332.631 178.779 338.326 174.181 345.616 170.809L337.219 152.657C327.109 157.334 318.717 163.982 312.273 172.622L328.304 184.58ZM345.593 170.82C352.932 167.448 361.109 165.696 370.271 165.696V145.696C358.48 145.696 347.422 147.969 337.243 152.646L345.593 170.82ZM370.271 165.696C380.16 165.696 388.032 167.693 394.285 171.234L404.139 153.83C394.295 148.256 382.872 145.696 370.271 145.696V165.696ZM394.334 171.261C400.947 174.957 405.78 179.681 409.132 185.419L426.402 175.333C421.113 166.276 413.576 159.103 404.091 153.803L394.334 171.261ZM409.132 185.419C412.557 191.285 414.248 197.534 414.248 204.347H434.248C434.248 193.996 431.618 184.265 426.402 175.333L409.132 185.419ZM414.248 204.347C414.248 212.739 412.078 219.295 408.153 224.557L424.185 236.515C431.032 227.336 434.248 216.433 434.248 204.347H414.248ZM408.122 224.6C404.164 229.965 398.778 233.768 391.517 235.97L397.32 255.109C408.406 251.748 417.521 245.549 424.216 236.473L408.122 224.6ZM384.418 245.54V246.96H404.418V245.54H384.418ZM392.791 256.827C402.243 258.386 408.892 262.223 413.584 267.947L429.053 255.27C420.842 245.251 409.558 239.322 396.046 237.094L392.791 256.827ZM413.607 267.976C418.375 273.749 420.995 281.08 420.995 290.639H440.995C440.995 277.116 437.164 265.093 429.029 255.241L413.607 267.976ZM420.995 290.639C420.995 298.586 418.868 305.48 414.663 311.626L431.169 322.92C437.736 313.322 440.995 302.461 440.995 290.639H420.995ZM414.654 311.639C410.391 317.892 404.505 322.945 396.697 326.749L405.456 344.729C416.115 339.536 424.788 332.279 431.178 322.906L414.654 311.639ZM396.697 326.749C389.016 330.491 380.044 332.486 369.56 332.486V352.486C382.633 352.486 394.672 349.983 405.456 344.729L396.697 326.749Z" fill="#6D6D6D"/>
</svg>
