<svg width="500" height="500" viewBox="0 0 500 500" fill="none" xmlns="http://www.w3.org/2000/svg">
<rect x="10" y="10" width="480" height="480" rx="90" stroke="#6D6D6D" stroke-width="20"/>
<path d="M110.043 340L60.3267 158.182H82.6989L120.696 306.264H122.472L161.179 158.182H186.037L224.744 306.264H226.52L264.517 158.182H286.889L237.173 340H214.446L174.318 195.114H172.898L132.77 340H110.043ZM298.319 302.713V284.602L378.22 158.182H391.359V186.236H382.481L322.112 281.761V283.182H429.711V302.713H298.319ZM383.902 340V297.209V288.775V158.182H404.854V340H383.902Z" fill="#6D6D6D"/>
<path d="M110.043 340L100.397 342.638L102.41 350H110.043V340ZM60.3267 158.182V148.182H47.2252L50.6808 160.819L60.3267 158.182ZM82.6989 158.182L92.3851 155.696L90.4569 148.182H82.6989V158.182ZM120.696 306.264L111.01 308.75L112.938 316.264H120.696V306.264ZM122.472 306.264V316.264H130.194L132.147 308.793L122.472 306.264ZM161.179 158.182V148.182H153.457L151.504 155.653L161.179 158.182ZM186.037 158.182L195.712 155.653L193.759 148.182H186.037V158.182ZM224.744 306.264L215.069 308.793L217.022 316.264H224.744V306.264ZM226.52 306.264V316.264H234.278L236.206 308.75L226.52 306.264ZM264.517 158.182V148.182H256.759L254.831 155.696L264.517 158.182ZM286.889 158.182L296.535 160.819L299.991 148.182H286.889V158.182ZM237.173 340V350H244.806L246.819 342.638L237.173 340ZM214.446 340L204.809 342.669L206.839 350H214.446V340ZM174.318 195.114L183.955 192.444L181.925 185.114H174.318V195.114ZM172.898 195.114V185.114H165.291L163.261 192.444L172.898 195.114ZM132.77 340V350H140.377L142.407 342.669L132.77 340ZM119.689 337.362L69.9726 155.544L50.6808 160.819L100.397 342.638L119.689 337.362ZM60.3267 168.182H82.6989V148.182H60.3267V168.182ZM73.0127 160.667L111.01 308.75L130.382 303.779L92.3851 155.696L73.0127 160.667ZM120.696 316.264H122.472V296.264H120.696V316.264ZM132.147 308.793L170.854 160.711L151.504 155.653L112.797 303.735L132.147 308.793ZM161.179 168.182H186.037V148.182H161.179V168.182ZM176.362 160.711L215.069 308.793L234.419 303.735L195.712 155.653L176.362 160.711ZM224.744 316.264H226.52V296.264H224.744V316.264ZM236.206 308.75L274.203 160.667L254.831 155.696L216.834 303.779L236.206 308.75ZM264.517 168.182H286.889V148.182H264.517V168.182ZM277.243 155.544L227.527 337.362L246.819 342.638L296.535 160.819L277.243 155.544ZM237.173 330H214.446V350H237.173V330ZM224.083 337.331L183.955 192.444L164.681 197.783L204.809 342.669L224.083 337.331ZM174.318 185.114H172.898V205.114H174.318V185.114ZM163.261 192.444L123.133 337.331L142.407 342.669L182.535 197.783L163.261 192.444ZM132.77 330H110.043V350H132.77V330ZM298.319 302.713H288.319V312.713H298.319V302.713ZM298.319 284.602L289.866 279.26L288.319 281.707V284.602H298.319ZM378.22 158.182V148.182H372.71L369.767 152.839L378.22 158.182ZM391.359 158.182H401.359V148.182H391.359V158.182ZM391.359 186.236V196.236H401.359V186.236H391.359ZM382.481 186.236V176.236H376.971L374.028 180.894L382.481 186.236ZM322.112 281.761L313.659 276.419L312.112 278.866V281.761H322.112ZM322.112 283.182H312.112V293.182H322.112V283.182ZM429.711 283.182H439.711V273.182H429.711V283.182ZM429.711 302.713V312.713H439.711V302.713H429.711ZM383.902 340H373.902V350H383.902V340ZM383.902 158.182V148.182H373.902V158.182H383.902ZM404.854 158.182H414.854V148.182H404.854V158.182ZM404.854 340V350H414.854V340H404.854ZM308.319 302.713V284.602H288.319V302.713H308.319ZM306.773 289.945L386.673 163.524L369.767 152.839L289.866 279.26L306.773 289.945ZM378.22 168.182H391.359V148.182H378.22V168.182ZM381.359 158.182V186.236H401.359V158.182H381.359ZM391.359 176.236H382.481V196.236H391.359V176.236ZM374.028 180.894L313.659 276.419L330.565 287.104L390.935 191.578L374.028 180.894ZM312.112 281.761V283.182H332.112V281.761H312.112ZM322.112 293.182H429.711V273.182H322.112V293.182ZM419.711 283.182V302.713H439.711V283.182H419.711ZM429.711 292.713H298.319V312.713H429.711V292.713ZM393.902 340V297.209H373.902V340H393.902ZM393.902 297.209V288.775H373.902V297.209H393.902ZM393.902 288.775V158.182H373.902V288.775H393.902ZM383.902 168.182H404.854V148.182H383.902V168.182ZM394.854 158.182V340H414.854V158.182H394.854ZM404.854 330H383.902V350H404.854V330Z" fill="#6D6D6D"/>
</svg>
