<svg width="500" height="500" viewBox="0 0 500 500" fill="none" xmlns="http://www.w3.org/2000/svg">
<rect x="10" y="10" width="480" height="480" rx="90" stroke="#6D6D6D" stroke-width="20"/>
<path d="M110.043 340L60.3267 158.182H82.6989L120.696 306.264H122.472L161.179 158.182H186.037L224.744 306.264H226.52L264.517 158.182H286.889L237.173 340H214.446L174.318 195.114H172.898L132.77 340H110.043ZM367.944 342.486C357.527 342.486 348.146 340.414 339.801 336.271C331.456 332.128 324.768 326.446 319.737 319.226C314.706 312.005 311.954 303.778 311.481 294.545H332.788C333.616 302.772 337.345 309.579 343.974 314.964C350.662 320.291 358.652 322.955 367.944 322.955C375.401 322.955 382.03 321.209 387.83 317.717C393.69 314.225 398.277 309.431 401.591 303.335C404.964 297.179 406.651 290.225 406.651 282.472C406.651 274.541 404.905 267.468 401.413 261.254C397.981 254.98 393.246 250.038 387.209 246.428C381.172 242.817 374.277 240.982 366.523 240.923C360.96 240.864 355.249 241.722 349.389 243.498C343.53 245.214 338.706 247.434 334.918 250.156L314.322 247.67L325.33 158.182H419.79V177.713H343.796L337.404 231.335H338.469C342.198 228.376 346.874 225.92 352.496 223.967C358.119 222.013 363.978 221.037 370.075 221.037C381.201 221.037 391.115 223.7 399.815 229.027C408.575 234.295 415.44 241.515 420.412 250.689C425.443 259.863 427.958 270.339 427.958 282.116C427.958 293.717 425.354 304.074 420.146 313.189C414.996 322.244 407.894 329.406 398.839 334.673C389.783 339.882 379.485 342.486 367.944 342.486Z" fill="#6D6D6D"/>
<path d="M110.043 340L100.397 342.638L102.41 350H110.043V340ZM60.3267 158.182V148.182H47.2252L50.6808 160.819L60.3267 158.182ZM82.6989 158.182L92.3851 155.696L90.4569 148.182H82.6989V158.182ZM120.696 306.264L111.01 308.75L112.938 316.264H120.696V306.264ZM122.472 306.264V316.264H130.194L132.147 308.793L122.472 306.264ZM161.179 158.182V148.182H153.457L151.504 155.653L161.179 158.182ZM186.037 158.182L195.712 155.653L193.759 148.182H186.037V158.182ZM224.744 306.264L215.069 308.793L217.022 316.264H224.744V306.264ZM226.52 306.264V316.264H234.278L236.206 308.75L226.52 306.264ZM264.517 158.182V148.182H256.759L254.831 155.696L264.517 158.182ZM286.889 158.182L296.535 160.819L299.991 148.182H286.889V158.182ZM237.173 340V350H244.806L246.819 342.638L237.173 340ZM214.446 340L204.809 342.669L206.839 350H214.446V340ZM174.318 195.114L183.955 192.444L181.925 185.114H174.318V195.114ZM172.898 195.114V185.114H165.291L163.261 192.444L172.898 195.114ZM132.77 340V350H140.377L142.407 342.669L132.77 340ZM119.689 337.362L69.9726 155.544L50.6808 160.819L100.397 342.638L119.689 337.362ZM60.3267 168.182H82.6989V148.182H60.3267V168.182ZM73.0127 160.667L111.01 308.75L130.382 303.779L92.3851 155.696L73.0127 160.667ZM120.696 316.264H122.472V296.264H120.696V316.264ZM132.147 308.793L170.854 160.711L151.504 155.653L112.797 303.735L132.147 308.793ZM161.179 168.182H186.037V148.182H161.179V168.182ZM176.362 160.711L215.069 308.793L234.419 303.735L195.712 155.653L176.362 160.711ZM224.744 316.264H226.52V296.264H224.744V316.264ZM236.206 308.75L274.203 160.667L254.831 155.696L216.834 303.779L236.206 308.75ZM264.517 168.182H286.889V148.182H264.517V168.182ZM277.243 155.544L227.527 337.362L246.819 342.638L296.535 160.819L277.243 155.544ZM237.173 330H214.446V350H237.173V330ZM224.083 337.331L183.955 192.444L164.681 197.783L204.809 342.669L224.083 337.331ZM174.318 185.114H172.898V205.114H174.318V185.114ZM163.261 192.444L123.133 337.331L142.407 342.669L182.535 197.783L163.261 192.444ZM132.77 330H110.043V350H132.77V330ZM339.801 336.271L335.354 345.228L335.354 345.228L339.801 336.271ZM319.737 319.226L327.942 313.509L327.942 313.509L319.737 319.226ZM311.481 294.545V284.545H300.955L301.494 295.058L311.481 294.545ZM332.788 294.545L342.737 293.543L341.831 284.545H332.788V294.545ZM343.974 314.964L337.668 322.726L337.706 322.756L337.744 322.787L343.974 314.964ZM387.83 317.717L382.711 309.126L382.692 309.138L382.672 309.149L387.83 317.717ZM401.591 303.335L392.822 298.528L392.814 298.543L392.805 298.558L401.591 303.335ZM401.413 261.254L392.641 266.054L392.668 266.103L392.695 266.152L401.413 261.254ZM366.523 240.923L366.417 250.923L366.432 250.923L366.447 250.923L366.523 240.923ZM349.389 243.498L352.2 253.095L352.245 253.082L352.289 253.068L349.389 243.498ZM334.918 250.156L333.72 260.084L337.59 260.551L340.755 258.276L334.918 250.156ZM314.322 247.67L304.397 246.449L303.173 256.397L313.124 257.598L314.322 247.67ZM325.33 158.182V148.182H316.485L315.405 156.961L325.33 158.182ZM419.79 158.182H429.79V148.182H419.79V158.182ZM419.79 177.713V187.713H429.79V177.713H419.79ZM343.796 177.713V167.713H334.917L333.866 176.529L343.796 177.713ZM337.404 231.335L327.474 230.152L326.141 241.335H337.404V231.335ZM338.469 231.335V241.335H341.955L344.686 239.168L338.469 231.335ZM399.815 229.027L394.594 237.555L394.628 237.576L394.662 237.597L399.815 229.027ZM420.412 250.689L411.62 255.454L411.632 255.475L411.644 255.497L420.412 250.689ZM420.146 313.189L411.463 308.228L411.458 308.237L411.453 308.246L420.146 313.189ZM398.839 334.673L403.825 343.342L403.846 343.33L403.867 343.317L398.839 334.673ZM367.944 332.486C358.886 332.486 351.055 330.694 344.248 327.314L335.354 345.228C345.237 350.135 356.168 352.486 367.944 352.486V332.486ZM344.248 327.314C337.316 323.873 331.956 319.27 327.942 313.509L311.532 324.942C317.58 333.623 325.595 340.383 335.354 345.228L344.248 327.314ZM327.942 313.509C324.035 307.902 321.85 301.498 321.468 294.033L301.494 295.058C302.058 306.059 305.377 316.108 311.532 324.942L327.942 313.509ZM311.481 304.545H332.788V284.545H311.481V304.545ZM322.838 295.548C323.943 306.519 329.05 315.723 337.668 322.726L350.28 307.203C345.64 303.434 343.29 299.026 342.737 293.543L322.838 295.548ZM337.744 322.787C346.359 329.649 356.598 332.955 367.944 332.955V312.955C360.705 312.955 354.964 310.934 350.204 307.142L337.744 322.787ZM367.944 332.955C377.029 332.955 385.476 330.807 392.988 326.284L382.672 309.149C378.585 311.61 373.774 312.955 367.944 312.955V332.955ZM392.95 326.307C400.379 321.879 406.22 315.756 410.376 308.111L392.805 298.558C390.333 303.105 387 306.57 382.711 309.126L392.95 326.307ZM410.36 308.141C414.623 300.362 416.651 291.725 416.651 282.472H396.651C396.651 288.724 395.306 293.996 392.822 298.528L410.36 308.141ZM416.651 282.472C416.651 273.022 414.555 264.228 410.131 256.355L392.695 266.152C395.255 270.708 396.651 276.059 396.651 282.472H416.651ZM410.186 256.453C405.913 248.645 399.933 242.386 392.341 237.845L382.076 255.01C386.558 257.69 390.048 261.315 392.641 266.054L410.186 256.453ZM392.341 237.845C384.622 233.229 375.947 230.995 366.6 230.924L366.447 250.923C372.606 250.97 377.722 252.406 382.076 255.01L392.341 237.845ZM366.63 230.924C359.952 230.853 353.226 231.886 346.489 233.928L352.289 253.068C357.271 251.558 361.968 250.875 366.417 250.923L366.63 230.924ZM346.578 233.901C339.95 235.843 334.022 238.486 329.082 242.036L340.755 258.276C343.391 256.382 347.109 254.586 352.2 253.095L346.578 233.901ZM336.117 240.228L315.52 237.742L313.124 257.598L333.72 260.084L336.117 240.228ZM324.247 248.891L335.255 159.403L315.405 156.961L304.397 246.449L324.247 248.891ZM325.33 168.182H419.79V148.182H325.33V168.182ZM409.79 158.182V177.713H429.79V158.182H409.79ZM419.79 167.713H343.796V187.713H419.79V167.713ZM333.866 176.529L327.474 230.152L347.334 232.519L353.726 178.897L333.866 176.529ZM337.404 241.335H338.469V221.335H337.404V241.335ZM344.686 239.168C347.345 237.058 350.962 235.086 355.778 233.413L349.215 214.52C342.785 216.754 337.051 219.694 332.253 223.502L344.686 239.168ZM355.778 233.413C360.32 231.835 365.068 231.037 370.075 231.037V211.037C362.889 211.037 355.919 212.192 349.215 214.52L355.778 233.413ZM370.075 231.037C379.532 231.037 387.607 233.278 394.594 237.555L405.037 220.498C394.624 214.123 382.871 211.037 370.075 211.037V231.037ZM394.662 237.597C401.857 241.924 407.481 247.816 411.62 255.454L429.204 245.924C423.4 235.214 415.292 226.665 404.969 220.457L394.662 237.597ZM411.644 255.497C415.769 263.02 417.958 271.805 417.958 282.116H437.958C437.958 268.872 435.116 256.706 429.18 245.881L411.644 255.497ZM417.958 282.116C417.958 292.164 415.72 300.779 411.463 308.228L428.828 318.15C434.988 307.37 437.958 295.27 437.958 282.116H417.958ZM411.453 308.246C407.182 315.756 401.348 321.645 393.811 326.029L403.867 343.317C414.44 337.167 422.811 328.732 428.838 318.132L411.453 308.246ZM393.853 326.005C386.47 330.252 377.923 332.486 367.944 332.486V352.486C381.047 352.486 393.097 349.512 403.825 343.342L393.853 326.005Z" fill="#6D6D6D"/>
</svg>
