<svg width="500" height="500" viewBox="0 0 500 500" fill="none" xmlns="http://www.w3.org/2000/svg">
<rect x="10" y="10" width="480" height="480" rx="90" stroke="#6D6D6D" stroke-width="20"/>
<path d="M110.043 340L60.3267 158.182H82.6989L120.696 306.264H122.472L161.179 158.182H186.037L224.744 306.264H226.52L264.517 158.182H286.889L237.173 340H214.446L174.318 195.114H172.898L132.77 340H110.043ZM371.495 342.486C364.038 342.367 356.58 340.947 349.123 338.224C341.665 335.502 334.859 330.915 328.704 324.464C322.549 317.953 317.607 309.164 313.878 298.097C310.149 286.97 308.285 273.002 308.285 256.193C308.285 240.095 309.794 225.831 312.812 213.402C315.831 200.914 320.211 190.408 325.952 181.886C331.693 173.304 338.617 166.793 346.726 162.354C354.893 157.915 364.097 155.696 374.336 155.696C384.516 155.696 393.571 157.738 401.502 161.822C409.492 165.846 416.003 171.469 421.033 178.69C426.064 185.91 429.319 194.226 430.799 203.636H409.137C407.125 195.469 403.219 188.692 397.418 183.306C391.618 177.92 383.924 175.227 374.336 175.227C360.25 175.227 349.152 181.353 341.044 193.604C332.995 205.856 328.941 223.049 328.881 245.185H330.302C333.616 240.154 337.552 235.863 342.109 232.312C346.726 228.701 351.816 225.92 357.379 223.967C362.943 222.013 368.832 221.037 375.046 221.037C385.463 221.037 394.992 223.641 403.633 228.849C412.274 233.999 419.199 241.13 424.407 250.245C429.615 259.3 432.219 269.688 432.219 281.406C432.219 292.652 429.704 302.95 424.673 312.301C419.643 321.593 412.57 328.991 403.455 334.496C394.4 339.941 383.746 342.604 371.495 342.486ZM371.495 322.955C378.952 322.955 385.64 321.09 391.559 317.362C397.537 313.633 402.242 308.632 405.675 302.358C409.167 296.084 410.913 289.1 410.913 281.406C410.913 273.89 409.226 267.054 405.852 260.898C402.538 254.684 397.951 249.742 392.092 246.072C386.291 242.403 379.663 240.568 372.205 240.568C366.583 240.568 361.345 241.693 356.491 243.942C351.638 246.132 347.377 249.15 343.707 252.997C340.097 256.844 337.256 261.254 335.185 266.225C333.113 271.138 332.077 276.316 332.077 281.761C332.077 288.982 333.764 295.729 337.138 302.003C340.571 308.277 345.246 313.337 351.165 317.184C357.143 321.031 363.919 322.955 371.495 322.955Z" fill="#6D6D6D"/>
<path d="M110.043 340L100.397 342.638L102.41 350H110.043V340ZM60.3267 158.182V148.182H47.2252L50.6808 160.819L60.3267 158.182ZM82.6989 158.182L92.3851 155.696L90.4569 148.182H82.6989V158.182ZM120.696 306.264L111.01 308.75L112.938 316.264H120.696V306.264ZM122.472 306.264V316.264H130.194L132.147 308.793L122.472 306.264ZM161.179 158.182V148.182H153.457L151.504 155.653L161.179 158.182ZM186.037 158.182L195.712 155.653L193.759 148.182H186.037V158.182ZM224.744 306.264L215.069 308.793L217.022 316.264H224.744V306.264ZM226.52 306.264V316.264H234.278L236.206 308.75L226.52 306.264ZM264.517 158.182V148.182H256.759L254.831 155.696L264.517 158.182ZM286.889 158.182L296.535 160.819L299.991 148.182H286.889V158.182ZM237.173 340V350H244.806L246.819 342.638L237.173 340ZM214.446 340L204.809 342.669L206.839 350H214.446V340ZM174.318 195.114L183.955 192.444L181.925 185.114H174.318V195.114ZM172.898 195.114V185.114H165.291L163.261 192.444L172.898 195.114ZM132.77 340V350H140.377L142.407 342.669L132.77 340ZM119.689 337.362L69.9726 155.544L50.6808 160.819L100.397 342.638L119.689 337.362ZM60.3267 168.182H82.6989V148.182H60.3267V168.182ZM73.0127 160.667L111.01 308.75L130.382 303.779L92.3851 155.696L73.0127 160.667ZM120.696 316.264H122.472V296.264H120.696V316.264ZM132.147 308.793L170.854 160.711L151.504 155.653L112.797 303.735L132.147 308.793ZM161.179 168.182H186.037V148.182H161.179V168.182ZM176.362 160.711L215.069 308.793L234.419 303.735L195.712 155.653L176.362 160.711ZM224.744 316.264H226.52V296.264H224.744V316.264ZM236.206 308.75L274.203 160.667L254.831 155.696L216.834 303.779L236.206 308.75ZM264.517 168.182H286.889V148.182H264.517V168.182ZM277.243 155.544L227.527 337.362L246.819 342.638L296.535 160.819L277.243 155.544ZM237.173 330H214.446V350H237.173V330ZM224.083 337.331L183.955 192.444L164.681 197.783L204.809 342.669L224.083 337.331ZM174.318 185.114H172.898V205.114H174.318V185.114ZM163.261 192.444L123.133 337.331L142.407 342.669L182.535 197.783L163.261 192.444ZM132.77 330H110.043V350H132.77V330ZM371.495 342.486L371.336 352.485L371.367 352.485L371.398 352.485L371.495 342.486ZM349.123 338.224L345.693 347.618L345.693 347.618L349.123 338.224ZM328.704 324.464L321.437 331.334L321.453 331.35L321.469 331.367L328.704 324.464ZM313.878 298.097L304.396 301.274L304.399 301.282L304.401 301.289L313.878 298.097ZM312.812 213.402L322.53 215.762L322.533 215.751L312.812 213.402ZM325.952 181.886L334.246 187.472L334.254 187.459L334.263 187.446L325.952 181.886ZM346.726 162.354L341.951 153.568L341.937 153.575L341.924 153.583L346.726 162.354ZM401.502 161.822L396.924 170.712L396.964 170.733L397.004 170.753L401.502 161.822ZM421.033 178.69L429.238 172.973L429.238 172.973L421.033 178.69ZM430.799 203.636V213.636H442.494L440.678 202.083L430.799 203.636ZM409.137 203.636L399.427 206.029L401.302 213.636H409.137V203.636ZM397.418 183.306L390.614 190.634L390.614 190.634L397.418 183.306ZM341.044 193.604L332.705 188.085L332.696 188.099L332.686 188.113L341.044 193.604ZM328.881 245.185L318.881 245.158L318.855 255.185H328.881V245.185ZM330.302 245.185V255.185H335.689L338.652 250.686L330.302 245.185ZM342.109 232.312L348.256 240.2L348.263 240.194L348.27 240.189L342.109 232.312ZM357.379 223.967L354.067 214.531L357.379 223.967ZM403.633 228.849L398.471 237.414L398.492 237.427L398.514 237.44L403.633 228.849ZM424.407 250.245L415.725 255.206L415.732 255.219L415.739 255.231L424.407 250.245ZM424.673 312.301L433.467 317.062L433.474 317.05L433.48 317.039L424.673 312.301ZM403.455 334.496L408.608 343.066L408.617 343.061L408.625 343.056L403.455 334.496ZM391.559 317.362L386.267 308.877L386.248 308.889L386.229 308.901L391.559 317.362ZM405.675 302.358L396.937 297.495L396.919 297.526L396.902 297.558L405.675 302.358ZM405.852 260.898L397.029 265.604L397.056 265.655L397.083 265.705L405.852 260.898ZM392.092 246.072L386.745 254.523L386.765 254.535L386.784 254.548L392.092 246.072ZM356.491 243.942L360.604 253.057L360.65 253.036L360.696 253.015L356.491 243.942ZM343.707 252.997L336.471 246.095L336.443 246.124L336.416 246.154L343.707 252.997ZM335.185 266.225L344.399 270.111L344.407 270.091L344.415 270.071L335.185 266.225ZM337.138 302.003L328.33 306.739L328.348 306.771L328.365 306.803L337.138 302.003ZM351.165 317.184L345.715 325.568L345.734 325.581L345.753 325.593L351.165 317.184ZM371.654 332.487C365.383 332.388 359.029 331.195 352.552 328.831L345.693 347.618C354.132 350.699 362.693 352.347 371.336 352.485L371.654 332.487ZM352.552 328.831C346.707 326.697 341.166 323.038 335.939 317.561L321.469 331.367C328.553 338.792 336.624 344.307 345.693 347.618L352.552 328.831ZM335.97 317.594C331.063 312.403 326.756 304.999 323.354 294.904L304.401 301.289C308.457 313.329 314.035 323.504 321.437 331.334L335.97 317.594ZM323.36 294.919C320.087 285.155 318.285 272.348 318.285 256.193H298.285C298.285 273.656 300.211 288.785 304.396 301.274L323.36 294.919ZM318.285 256.193C318.285 240.695 319.74 227.25 322.53 215.762L303.095 211.042C299.848 224.412 298.285 239.494 298.285 256.193H318.285ZM322.533 215.751C325.339 204.141 329.311 194.797 334.246 187.472L317.658 176.299C311.11 186.019 306.323 197.687 303.092 211.053L322.533 215.751ZM334.263 187.446C339.216 180.043 344.989 174.706 351.528 171.126L341.924 153.583C332.246 158.881 324.169 166.565 317.64 176.325L334.263 187.446ZM351.501 171.141C358.058 167.577 365.592 165.696 374.336 165.696V145.696C362.602 145.696 351.729 148.254 341.951 153.568L351.501 171.141ZM374.336 165.696C383.15 165.696 390.598 167.455 396.924 170.712L406.08 152.931C396.545 148.021 385.882 145.696 374.336 145.696V165.696ZM397.004 170.753C403.536 174.043 408.763 178.572 412.828 184.406L429.238 172.973C423.242 164.366 415.448 157.65 406.001 152.891L397.004 170.753ZM412.828 184.406C416.923 190.283 419.656 197.15 420.92 205.19L440.678 202.083C438.982 191.302 435.205 181.537 429.238 172.973L412.828 184.406ZM430.799 193.636H409.137V213.636H430.799V193.636ZM418.847 201.244C416.399 191.308 411.543 182.776 404.223 175.978L390.614 190.634C394.894 194.608 397.851 199.63 399.427 206.029L418.847 201.244ZM404.223 175.978C396.198 168.527 385.885 165.227 374.336 165.227V185.227C381.963 185.227 387.038 187.314 390.614 190.634L404.223 175.978ZM374.336 165.227C356.725 165.227 342.57 173.18 332.705 188.085L349.383 199.123C355.735 189.526 363.774 185.227 374.336 185.227V165.227ZM332.686 188.113C323.156 202.619 318.943 222.005 318.881 245.158L338.881 245.211C338.938 224.093 342.833 209.093 349.402 199.095L332.686 188.113ZM328.881 255.185H330.302V235.185H328.881V255.185ZM338.652 250.686C341.393 246.526 344.595 243.053 348.256 240.2L335.963 224.424C330.509 228.673 325.839 233.781 321.951 239.683L338.652 250.686ZM348.27 240.189C352.023 237.254 356.15 234.997 360.692 233.402L354.067 214.531C347.482 216.843 341.429 220.149 335.949 224.435L348.27 240.189ZM360.692 233.402C365.134 231.842 369.898 231.037 375.046 231.037V211.037C367.765 211.037 360.751 212.185 354.067 214.531L360.692 233.402ZM375.046 231.037C383.705 231.037 391.44 233.176 398.471 237.414L408.795 220.285C398.544 214.106 387.22 211.037 375.046 211.037V231.037ZM398.514 237.44C405.608 241.667 411.333 247.521 415.725 255.206L433.089 245.284C427.065 234.74 418.939 226.33 408.752 220.259L398.514 237.44ZM415.739 255.231C419.972 262.591 422.219 271.22 422.219 281.406H442.219C442.219 268.155 439.259 256.01 433.075 245.259L415.739 255.231ZM422.219 281.406C422.219 291.099 420.068 299.755 415.867 307.563L433.48 317.039C439.34 306.145 442.219 294.204 442.219 281.406H422.219ZM415.879 307.54C411.704 315.253 405.888 321.345 398.286 325.936L408.625 343.056C419.252 336.638 427.581 327.934 433.467 317.062L415.879 307.54ZM398.302 325.926C391.07 330.275 382.295 332.59 371.592 332.486L371.398 352.485C385.198 352.619 397.73 349.607 408.608 343.066L398.302 325.926ZM371.495 332.955C380.709 332.955 389.268 330.624 396.889 325.822L386.229 308.901C382.013 311.557 377.196 312.955 371.495 312.955V332.955ZM396.851 325.846C404.309 321.194 410.203 314.915 414.447 307.158L396.902 297.558C394.281 302.349 390.764 306.071 386.267 308.877L396.851 325.846ZM414.412 307.221C418.791 299.354 420.913 290.677 420.913 281.406H400.913C400.913 287.524 399.542 292.814 396.937 297.495L414.412 307.221ZM420.913 281.406C420.913 272.332 418.86 263.825 414.622 256.092L397.083 265.705C399.592 270.283 400.913 275.447 400.913 281.406H420.913ZM414.676 256.193C410.555 248.466 404.769 242.212 397.399 237.597L386.784 254.548C391.133 257.271 394.521 260.902 397.029 265.604L414.676 256.193ZM397.438 237.622C389.9 232.853 381.385 230.568 372.205 230.568V250.568C377.94 250.568 382.683 251.953 386.745 254.523L397.438 237.622ZM372.205 230.568C365.206 230.568 358.525 231.978 352.287 234.869L360.696 253.015C364.164 251.408 367.959 250.568 372.205 250.568V230.568ZM352.379 234.827C346.353 237.545 341.031 241.315 336.471 246.095L350.943 259.899C353.723 256.985 356.923 254.718 360.604 253.057L352.379 234.827ZM336.416 246.154C331.967 250.894 328.477 256.324 325.954 262.379L344.415 270.071C346.035 266.183 348.227 262.794 350.999 259.84L336.416 246.154ZM325.97 262.34C323.369 268.508 322.077 275.011 322.077 281.761H342.077C342.077 277.622 342.857 273.767 344.399 270.111L325.97 262.34ZM322.077 281.761C322.077 290.611 324.163 298.989 328.33 306.739L345.945 297.267C343.366 292.47 342.077 287.353 342.077 281.761H322.077ZM328.365 306.803C332.581 314.508 338.39 320.808 345.715 325.568L356.615 308.8C352.102 305.866 348.56 302.045 345.91 297.203L328.365 306.803ZM345.753 325.593C353.452 330.548 362.132 332.955 371.495 332.955V312.955C365.706 312.955 360.833 311.514 356.577 308.775L345.753 325.593Z" fill="#6D6D6D"/>
</svg>
