<svg width="500" height="500" viewBox="0 0 500 500" fill="none" xmlns="http://www.w3.org/2000/svg">
<rect x="10" y="10" width="480" height="480" rx="90" stroke="#6D6D6D" stroke-width="20"/>
<path d="M120.043 340L70.3267 158.182H92.6989L130.696 306.264H132.472L171.179 158.182H196.037L234.744 306.264H236.52L274.517 158.182H296.889L247.173 340H224.446L184.318 195.114H182.898L142.77 340H120.043ZM326.808 340L408.129 179.134V177.713H314.379V158.182H430.856V178.778L349.89 340H326.808Z" fill="#6D6D6D"/>
<path d="M120.043 340L110.397 342.638L112.41 350H120.043V340ZM70.3267 158.182V148.182H57.2252L60.6808 160.819L70.3267 158.182ZM92.6989 158.182L102.385 155.696L100.457 148.182H92.6989V158.182ZM130.696 306.264L121.01 308.75L122.938 316.264H130.696V306.264ZM132.472 306.264V316.264H140.194L142.147 308.793L132.472 306.264ZM171.179 158.182V148.182H163.457L161.504 155.653L171.179 158.182ZM196.037 158.182L205.712 155.653L203.759 148.182H196.037V158.182ZM234.744 306.264L225.069 308.793L227.022 316.264H234.744V306.264ZM236.52 306.264V316.264H244.278L246.206 308.75L236.52 306.264ZM274.517 158.182V148.182H266.759L264.831 155.696L274.517 158.182ZM296.889 158.182L306.535 160.819L309.991 148.182H296.889V158.182ZM247.173 340V350H254.806L256.819 342.638L247.173 340ZM224.446 340L214.809 342.669L216.839 350H224.446V340ZM184.318 195.114L193.955 192.444L191.925 185.114H184.318V195.114ZM182.898 195.114V185.114H175.291L173.261 192.444L182.898 195.114ZM142.77 340V350H150.377L152.407 342.669L142.77 340ZM129.689 337.362L79.9726 155.544L60.6808 160.819L110.397 342.638L129.689 337.362ZM70.3267 168.182H92.6989V148.182H70.3267V168.182ZM83.0127 160.667L121.01 308.75L140.382 303.779L102.385 155.696L83.0127 160.667ZM130.696 316.264H132.472V296.264H130.696V316.264ZM142.147 308.793L180.854 160.711L161.504 155.653L122.797 303.735L142.147 308.793ZM171.179 168.182H196.037V148.182H171.179V168.182ZM186.362 160.711L225.069 308.793L244.419 303.735L205.712 155.653L186.362 160.711ZM234.744 316.264H236.52V296.264H234.744V316.264ZM246.206 308.75L284.203 160.667L264.831 155.696L226.834 303.779L246.206 308.75ZM274.517 168.182H296.889V148.182H274.517V168.182ZM287.243 155.544L237.527 337.362L256.819 342.638L306.535 160.819L287.243 155.544ZM247.173 330H224.446V350H247.173V330ZM234.083 337.331L193.955 192.444L174.681 197.783L214.809 342.669L234.083 337.331ZM184.318 185.114H182.898V205.114H184.318V185.114ZM173.261 192.444L133.133 337.331L152.407 342.669L192.535 197.783L173.261 192.444ZM142.77 330H120.043V350H142.77V330ZM326.808 340L317.883 335.489L310.547 350H326.808V340ZM408.129 179.134L417.053 183.645L418.129 181.517V179.134H408.129ZM408.129 177.713H418.129V167.713H408.129V177.713ZM314.379 177.713H304.379V187.713H314.379V177.713ZM314.379 158.182V148.182H304.379V158.182H314.379ZM430.856 158.182H440.856V148.182H430.856V158.182ZM430.856 178.778L439.792 183.266L440.856 181.148V178.778H430.856ZM349.89 340V350H356.058L358.826 344.488L349.89 340ZM335.732 344.511L417.053 183.645L399.204 174.622L317.883 335.489L335.732 344.511ZM418.129 179.134V177.713H398.129V179.134H418.129ZM408.129 167.713H314.379V187.713H408.129V167.713ZM324.379 177.713V158.182H304.379V177.713H324.379ZM314.379 168.182H430.856V148.182H314.379V168.182ZM420.856 158.182V178.778H440.856V158.182H420.856ZM421.919 174.291L340.954 335.512L358.826 344.488L439.792 183.266L421.919 174.291ZM349.89 330H326.808V350H349.89V330Z" fill="#6D6D6D"/>
</svg>
