<svg width="500" height="500" viewBox="0 0 500 500" fill="none" xmlns="http://www.w3.org/2000/svg">
<rect x="10" y="10" width="480" height="480" rx="90" stroke="#6D6D6D" stroke-width="20"/>
<path d="M120.043 340L70.3267 158.182H92.6989L130.696 306.264H132.472L171.179 158.182H196.037L234.744 306.264H236.52L274.517 158.182H296.889L247.173 340H224.446L184.318 195.114H182.898L142.77 340H120.043ZM379.364 342.486C367.172 342.486 356.4 340.326 347.049 336.005C337.757 331.625 330.507 325.618 325.298 317.983C320.09 310.289 317.515 301.529 317.575 291.705C317.515 284.01 319.025 276.908 322.102 270.398C325.18 263.828 329.382 258.353 334.709 253.974C340.095 249.535 346.102 246.723 352.731 245.54V244.474C344.031 242.225 337.106 237.343 331.957 229.826C326.808 222.25 324.263 213.639 324.322 203.991C324.263 194.759 326.6 186.502 331.335 179.222C336.07 171.942 342.58 166.201 350.866 161.999C359.212 157.797 368.711 155.696 379.364 155.696C389.899 155.696 399.31 157.797 407.596 161.999C415.882 166.201 422.392 171.942 427.127 179.222C431.921 186.502 434.348 194.759 434.407 203.991C434.348 213.639 431.714 222.25 426.506 229.826C421.357 237.343 414.521 242.225 405.998 244.474V245.54C412.567 246.723 418.486 249.535 423.754 253.974C429.021 258.353 433.223 263.828 436.36 270.398C439.497 276.908 441.095 284.01 441.154 291.705C441.095 301.529 438.432 310.289 433.164 317.983C427.956 325.618 420.705 331.625 411.413 336.005C402.18 340.326 391.497 342.486 379.364 342.486ZM379.364 322.955C387.591 322.955 394.693 321.623 400.671 318.96C406.649 316.296 411.265 312.538 414.521 307.685C417.776 302.831 419.433 297.15 419.492 290.639C419.433 283.774 417.657 277.707 414.165 272.44C410.674 267.172 405.909 263.029 399.872 260.011C393.894 256.992 387.058 255.483 379.364 255.483C371.611 255.483 364.686 256.992 358.59 260.011C352.553 263.029 347.789 267.172 344.297 272.44C340.864 277.707 339.177 283.774 339.237 290.639C339.177 297.15 340.746 302.831 343.942 307.685C347.197 312.538 351.843 316.296 357.88 318.96C363.917 321.623 371.078 322.955 379.364 322.955ZM379.364 236.662C385.875 236.662 391.645 235.36 396.676 232.756C401.766 230.152 405.761 226.512 408.661 221.836C411.561 217.16 413.041 211.686 413.1 205.412C413.041 199.257 411.591 193.9 408.75 189.343C405.909 184.727 401.973 181.175 396.942 178.69C391.912 176.145 386.052 174.872 379.364 174.872C372.558 174.872 366.61 176.145 361.52 178.69C356.43 181.175 352.494 184.727 349.712 189.343C346.931 193.9 345.569 199.257 345.629 205.412C345.569 211.686 346.96 217.16 349.801 221.836C352.701 226.512 356.696 230.152 361.786 232.756C366.876 235.36 372.736 236.662 379.364 236.662Z" fill="#6D6D6D"/>
<path d="M120.043 340L110.397 342.638L112.41 350H120.043V340ZM70.3267 158.182V148.182H57.2252L60.6808 160.819L70.3267 158.182ZM92.6989 158.182L102.385 155.696L100.457 148.182H92.6989V158.182ZM130.696 306.264L121.01 308.75L122.938 316.264H130.696V306.264ZM132.472 306.264V316.264H140.194L142.147 308.793L132.472 306.264ZM171.179 158.182V148.182H163.457L161.504 155.653L171.179 158.182ZM196.037 158.182L205.712 155.653L203.759 148.182H196.037V158.182ZM234.744 306.264L225.069 308.793L227.022 316.264H234.744V306.264ZM236.52 306.264V316.264H244.278L246.206 308.75L236.52 306.264ZM274.517 158.182V148.182H266.759L264.831 155.696L274.517 158.182ZM296.889 158.182L306.535 160.819L309.991 148.182H296.889V158.182ZM247.173 340V350H254.806L256.819 342.638L247.173 340ZM224.446 340L214.809 342.669L216.839 350H224.446V340ZM184.318 195.114L193.955 192.444L191.925 185.114H184.318V195.114ZM182.898 195.114V185.114H175.291L173.261 192.444L182.898 195.114ZM142.77 340V350H150.377L152.407 342.669L142.77 340ZM129.689 337.362L79.9726 155.544L60.6808 160.819L110.397 342.638L129.689 337.362ZM70.3267 168.182H92.6989V148.182H70.3267V168.182ZM83.0127 160.667L121.01 308.75L140.382 303.779L102.385 155.696L83.0127 160.667ZM130.696 316.264H132.472V296.264H130.696V316.264ZM142.147 308.793L180.854 160.711L161.504 155.653L122.797 303.735L142.147 308.793ZM171.179 168.182H196.037V148.182H171.179V168.182ZM186.362 160.711L225.069 308.793L244.419 303.735L205.712 155.653L186.362 160.711ZM234.744 316.264H236.52V296.264H234.744V316.264ZM246.206 308.75L284.203 160.667L264.831 155.696L226.834 303.779L246.206 308.75ZM274.517 168.182H296.889V148.182H274.517V168.182ZM287.243 155.544L237.527 337.362L256.819 342.638L306.535 160.819L287.243 155.544ZM247.173 330H224.446V350H247.173V330ZM234.083 337.331L193.955 192.444L174.681 197.783L214.809 342.669L234.083 337.331ZM184.318 185.114H182.898V205.114H184.318V185.114ZM173.261 192.444L133.133 337.331L152.407 342.669L192.535 197.783L173.261 192.444ZM142.77 330H120.043V350H142.77V330ZM347.049 336.005L342.785 345.051L342.82 345.067L342.855 345.083L347.049 336.005ZM325.298 317.983L317.017 323.589L317.027 323.603L317.037 323.618L325.298 317.983ZM317.575 291.705L327.574 291.765L327.575 291.696L327.574 291.628L317.575 291.705ZM322.102 270.398L331.143 274.672L331.15 274.656L331.158 274.64L322.102 270.398ZM334.709 253.974L341.06 261.698L341.069 261.691L334.709 253.974ZM352.731 245.54L354.489 255.384L362.731 253.912V245.54H352.731ZM352.731 244.474H362.731V236.731L355.234 234.793L352.731 244.474ZM331.957 229.826L323.686 235.447L323.696 235.462L323.707 235.477L331.957 229.826ZM324.322 203.991L334.322 204.053L334.322 203.99L334.322 203.927L324.322 203.991ZM331.335 179.222L339.718 184.675L339.718 184.675L331.335 179.222ZM350.866 161.999L346.369 153.068L346.356 153.074L346.343 153.081L350.866 161.999ZM427.127 179.222L418.744 184.675L418.76 184.698L418.775 184.722L427.127 179.222ZM434.407 203.991L444.407 204.053L444.407 203.99L444.407 203.927L434.407 203.991ZM426.506 229.826L418.265 224.161L418.261 224.168L418.256 224.174L426.506 229.826ZM405.998 244.474L403.446 234.805L395.998 236.771V244.474H405.998ZM405.998 245.54H395.998V253.899L404.225 255.381L405.998 245.54ZM423.754 253.974L417.31 261.621L417.335 261.642L417.36 261.663L423.754 253.974ZM436.36 270.398L427.336 274.707L427.344 274.722L427.351 274.738L436.36 270.398ZM441.154 291.705L451.154 291.765L451.154 291.696L451.154 291.628L441.154 291.705ZM433.164 317.983L424.913 312.334L424.908 312.341L424.903 312.348L433.164 317.983ZM411.413 336.005L415.652 345.062L415.664 345.056L415.677 345.051L411.413 336.005ZM400.671 318.96L396.601 309.825L396.601 309.825L400.671 318.96ZM414.521 307.685L406.216 302.114L406.216 302.114L414.521 307.685ZM419.492 290.639L429.492 290.73L429.493 290.642L429.492 290.553L419.492 290.639ZM414.165 272.44L405.831 277.965L405.831 277.965L414.165 272.44ZM399.872 260.011L395.365 268.937L395.382 268.946L395.4 268.955L399.872 260.011ZM358.59 260.011L354.153 251.049L354.135 251.058L354.118 251.066L358.59 260.011ZM344.297 272.44L335.962 266.914L335.94 266.947L335.919 266.98L344.297 272.44ZM339.237 290.639L349.236 290.73L349.237 290.642L349.236 290.553L339.237 290.639ZM343.942 307.685L335.59 313.185L335.613 313.22L335.637 313.255L343.942 307.685ZM357.88 318.96L361.916 309.81L357.88 318.96ZM396.676 232.756L392.121 223.853L392.1 223.864L392.079 223.875L396.676 232.756ZM408.661 221.836L417.159 227.107L417.159 227.107L408.661 221.836ZM413.1 205.412L423.1 205.506L423.101 205.411L423.1 205.316L413.1 205.412ZM408.75 189.343L400.233 194.584L400.249 194.609L400.264 194.633L408.75 189.343ZM396.942 178.69L392.428 187.613L392.47 187.634L392.513 187.655L396.942 178.69ZM361.52 178.69L365.908 187.675L365.95 187.655L365.992 187.634L361.52 178.69ZM349.712 189.343L358.248 194.553L358.263 194.529L358.278 194.504L349.712 189.343ZM345.629 205.412L355.628 205.506L355.629 205.411L355.628 205.316L345.629 205.412ZM349.801 221.836L341.255 227.029L341.279 227.068L341.303 227.107L349.801 221.836ZM379.364 332.486C368.358 332.486 359.06 330.539 351.243 326.927L342.855 345.083C353.74 350.112 365.987 352.486 379.364 352.486V332.486ZM351.313 326.959C343.449 323.253 337.654 318.35 333.559 312.348L317.037 323.618C323.359 332.886 332.065 339.998 342.785 345.051L351.313 326.959ZM333.579 312.377C329.57 306.454 327.527 299.693 327.574 291.765L307.575 291.644C307.504 303.365 310.61 314.124 317.017 323.589L333.579 312.377ZM327.574 291.628C327.526 285.332 328.752 279.73 331.143 274.672L313.062 266.124C309.298 274.086 307.505 282.689 307.575 291.781L327.574 291.628ZM331.158 274.64C333.638 269.346 336.942 265.084 341.06 261.698L328.358 246.249C321.822 251.623 316.722 258.31 313.047 266.155L331.158 274.64ZM341.069 261.691C345.179 258.303 349.614 256.254 354.489 255.384L350.973 235.695C342.59 237.193 335.01 240.767 328.349 246.257L341.069 261.691ZM362.731 245.54V244.474H342.731V245.54H362.731ZM355.234 234.793C348.909 233.158 344.011 229.728 340.207 224.174L323.707 235.477C330.201 244.957 339.152 251.293 350.228 254.156L355.234 234.793ZM340.227 224.205C336.279 218.396 334.274 211.788 334.322 204.053L314.322 203.93C314.251 215.489 317.336 226.104 323.686 235.447L340.227 224.205ZM334.322 203.927C334.274 196.522 336.119 190.208 339.718 184.675L322.952 173.77C317.082 182.796 314.251 192.995 314.322 204.056L334.322 203.927ZM339.718 184.675C343.427 178.973 348.559 174.382 355.39 170.918L346.343 153.081C336.602 158.021 328.714 164.912 322.952 173.77L339.718 184.675ZM355.364 170.931C362.13 167.524 370.053 165.696 379.364 165.696V145.696C367.369 145.696 356.294 148.07 346.369 153.068L355.364 170.931ZM379.364 165.696C388.54 165.696 396.366 167.517 403.073 170.918L412.119 153.081C402.253 148.077 391.259 145.696 379.364 145.696V165.696ZM403.073 170.918C409.903 174.382 415.036 178.973 418.744 184.675L435.51 173.77C429.749 164.912 421.861 158.021 412.119 153.081L403.073 170.918ZM418.775 184.722C422.442 190.29 424.36 196.636 424.407 204.056L444.407 203.927C444.336 192.882 441.4 182.714 435.479 173.722L418.775 184.722ZM424.407 203.93C424.36 211.68 422.282 218.319 418.265 224.161L434.746 235.491C441.146 226.182 444.336 215.598 444.407 204.053L424.407 203.93ZM418.256 224.174C414.413 229.784 409.565 233.191 403.446 234.805L408.549 254.143C419.476 251.26 428.3 244.901 434.756 235.477L418.256 224.174ZM395.998 244.474V245.54H415.998V244.474H395.998ZM404.225 255.381C409.016 256.245 413.335 258.272 417.31 261.621L430.198 246.327C423.637 240.798 416.119 237.202 407.771 235.698L404.225 255.381ZM417.36 261.663C421.448 265.062 424.782 269.357 427.336 274.707L445.384 266.089C441.665 258.299 436.594 251.645 430.147 246.284L417.36 261.663ZM427.351 274.738C429.806 279.833 431.106 285.467 431.154 291.781L451.154 291.628C451.084 282.554 449.188 273.983 445.369 266.057L427.351 274.738ZM431.154 291.644C431.106 299.586 428.99 306.377 424.913 312.334L441.416 323.632C447.873 314.2 451.083 303.472 451.154 291.765L431.154 291.644ZM424.903 312.348C420.808 318.35 415.014 323.253 407.15 326.959L415.677 345.051C426.397 339.998 435.103 332.886 441.425 323.618L424.903 312.348ZM407.175 326.948C399.497 330.54 390.308 332.486 379.364 332.486V352.486C392.687 352.486 404.864 350.111 415.652 345.062L407.175 326.948ZM379.364 332.955C388.644 332.955 397.198 331.455 404.741 328.094L396.601 309.825C392.189 311.791 386.538 312.955 379.364 312.955V332.955ZM404.741 328.094C412.225 324.759 418.4 319.853 422.825 313.255L406.216 302.114C404.131 305.222 401.072 307.833 396.601 309.825L404.741 328.094ZM422.825 313.255C427.29 306.598 429.417 298.962 429.492 290.73L409.493 290.548C409.449 295.337 408.261 299.065 406.216 302.114L422.825 313.255ZM429.492 290.553C429.417 281.926 427.154 273.935 422.5 266.914L405.831 277.965C408.16 281.479 409.449 285.622 409.493 290.725L429.492 290.553ZM422.5 266.914C417.976 260.09 411.836 254.812 404.344 251.066L395.4 268.955C399.983 271.246 403.371 274.255 405.831 277.965L422.5 266.914ZM404.38 251.084C396.809 247.261 388.39 245.483 379.364 245.483V265.483C385.727 265.483 390.98 266.723 395.365 268.937L404.38 251.084ZM379.364 245.483C370.288 245.483 361.81 247.258 354.153 251.049L363.027 268.972C367.563 266.727 372.934 265.483 379.364 265.483V245.483ZM354.118 251.066C346.627 254.812 340.486 260.09 335.962 266.914L352.632 277.965C355.091 274.255 358.48 271.246 363.062 268.955L354.118 251.066ZM335.919 266.98C331.313 274.048 329.162 282.081 329.237 290.725L349.236 290.553C349.192 285.467 350.415 281.367 352.675 277.899L335.919 266.98ZM329.237 290.548C329.162 298.797 331.173 306.477 335.59 313.185L352.293 302.185C350.319 299.186 349.193 295.503 349.236 290.73L329.237 290.548ZM335.637 313.255C340.079 319.878 346.304 324.782 353.844 328.109L361.916 309.81C357.382 307.81 354.315 305.198 352.247 302.114L335.637 313.255ZM353.844 328.109C361.433 331.457 370.032 332.955 379.364 332.955V312.955C372.124 312.955 366.401 311.789 361.916 309.81L353.844 328.109ZM379.364 246.662C387.235 246.662 394.623 245.079 401.273 241.636L392.079 223.875C388.668 225.641 384.515 226.662 379.364 226.662V246.662ZM401.231 241.658C407.875 238.259 413.261 233.392 417.159 227.107L400.163 216.565C398.261 219.632 395.657 222.044 392.121 223.853L401.231 241.658ZM417.159 227.107C421.154 220.667 423.026 213.348 423.1 205.506L403.101 205.318C403.056 210.023 401.969 213.654 400.163 216.565L417.159 227.107ZM423.1 205.316C423.025 197.597 421.185 190.387 417.236 184.053L400.264 194.633C401.997 197.414 403.056 200.916 403.101 205.508L423.1 205.316ZM417.267 184.102C413.405 177.826 408.026 173.012 401.372 169.724L392.513 187.655C395.921 189.339 398.414 191.627 400.233 194.584L417.267 184.102ZM401.457 169.766C394.788 166.393 387.33 164.872 379.364 164.872V184.872C384.774 184.872 389.035 185.896 392.428 187.613L401.457 169.766ZM379.364 164.872C371.307 164.872 363.773 166.383 357.048 169.745L365.992 187.634C369.447 185.907 373.809 184.872 379.364 184.872V164.872ZM357.132 169.704C350.403 172.99 344.976 177.828 341.147 184.182L358.278 194.504C360.013 191.625 362.457 189.361 365.908 187.675L357.132 169.704ZM341.177 184.133C337.279 190.519 335.555 197.774 335.629 205.508L355.628 205.316C355.584 200.739 356.583 197.281 358.248 194.553L341.177 184.133ZM335.629 205.318C335.555 213.175 337.311 220.537 341.255 227.029L358.347 216.643C356.609 213.783 355.584 210.196 355.628 205.506L335.629 205.318ZM341.303 227.107C345.201 233.392 350.588 238.259 357.231 241.658L366.341 223.853C362.805 222.044 360.201 219.632 358.299 216.565L341.303 227.107ZM357.231 241.658C363.94 245.091 371.405 246.662 379.364 246.662V226.662C374.066 226.662 369.812 225.629 366.341 223.853L357.231 241.658Z" fill="#6D6D6D"/>
</svg>
